<?xml version="1.0"?>
<svg version="1.1" xmlns="http://www.w3.org/2000/svg" width="220px" height="48px" style=""><path fill="#fa0505" d="M54.92,35.49l0.45,2.52s1.2,0.63,2.94,0.63c1.92,0,3.63-0.84,3.63-2.43c0-3.51-10.14-1.95-10.14-9.36c0-4.14,3.27-6.36,7.62-6.36c3.39,0,6.6,1.2,6.6,1.2l-0.15,5.46l-2.76,0l-0.75-2.55s-1.35-0.45-2.64-0.45c-2.13,0-3.18,0.93-3.18,2.13c0,3.48,10.11,2.1,10.11,9.15c0,4.5-3.48,6.96-8.1,6.96c-3.39,0-6.69-1.14-6.69-1.14l0-5.76l3.06,0z M77.7353,18.75l0,8.79c0.87-0.72,2.82-2.04,5.04-2.04c3.06,0,4.71,2.04,4.71,5.4l0,7.95l2.1,0.75l0,2.4l-8.16,0l0-2.4l1.56-0.72l0-7.26c0-1.5-0.6-2.4-1.98-2.4c-1.68,0-3.27,1.59-3.27,1.59l0,8.04l1.59,0.75l0,2.4l-8.49,0l0-2.4l2.4-0.75l0-16.86l-2.4-0.6l0-2.4z M103.7006,42l-0.54-1.95s-2.31,2.25-4.86,2.25c-2.91,0-4.68-1.71-4.68-4.71c0-3.54,2.67-4.95,7.23-4.95l2.1,0l0-1.65c0-1.53-0.81-2.19-2.31-2.19c-1.53,0-2.64,0.45-2.64,0.45l-0.45,1.89l-2.7,0l-0.21-4.44s3.63-1.2,6.51-1.2c4.56,0,6.3,1.59,6.3,5.94l0,7.41l2.25,0.54l0,2.4z M102.9506,35.19l-1.71,0c-2.34,0-3.27,0.6-3.27,1.95c0,1.14,0.63,1.8,1.77,1.8c1.59,0,3.21-1.74,3.21-1.74l0-2.01z M119.8859,25.8l0.27,2.07s2.16-2.37,4.17-2.37c1.65,0,2.79,0.54,2.79,0.54l-0.24,5.76l-2.7,0l-0.45-2.55c-1.74,0-3.24,1.68-3.24,1.68l0,7.92l3,0.75l0,2.4l-9.9,0l0-2.4l2.4-0.75l0-9.75l-2.4-0.75l0-2.4z M158.3912,39.6l0,2.4l-8.13,0l0-2.4l1.59-0.75l0-7.14c0-1.65-0.48-2.46-1.74-2.46c-1.95,0-3.33,1.56-3.33,1.56l0,8.04l1.56,0.75l0,2.4l-7.62,0l0-2.4l1.56-0.75l0-7.14c0-1.65-0.42-2.46-1.71-2.46c-1.95,0-3.36,1.56-3.36,1.56l0,8.04l1.59,0.75l0,2.4l-8.4,0l0-2.4l2.31-0.75l0-9.75l-2.28-0.75l0-2.4l6.27-0.15l0.21,2.13s2.61-2.43,5.25-2.43c2.13,0,3.45,0.99,4.14,2.58c0.51-0.51,2.76-2.58,5.43-2.58c3.15,0,4.62,2.04,4.62,5.4l0,7.95z M164.1365,20.85c0-1.71,1.23-2.7,2.58-2.7c1.56,0,2.52,0.81,2.52,2.7c0,1.77-1.29,2.73-2.52,2.73c-1.62,0-2.58-0.96-2.58-2.73z M169.1765,38.85l2.1,0.75l0,2.4l-9,0l0-2.4l2.4-0.75l0-9.75l-2.4-0.75l0-2.4l6.9-0.15l0,13.05z M181.6718,25.8l0.21,2.07s2.85-2.31,5.52-2.31c2.91,0,4.56,2.07,4.56,5.34l0,7.95l2.1,0.75l0,2.4l-8.25,0l0-2.4l1.65-0.75l0-7.14c0-1.38-0.78-2.4-2.04-2.4c-1.86,0-3.21,1.71-3.21,1.71l0,7.83l1.65,0.75l0,2.4l-8.55,0l0-2.4l2.4-0.75l0-9.75l-2.4-0.75l0-2.4z M210.9524,35.49l0.45,2.52s1.2,0.63,2.94,0.63c1.92,0,3.63-0.84,3.63-2.43c0-3.51-10.14-1.95-10.14-9.36c0-4.14,3.27-6.36,7.62-6.36c3.39,0,6.6,1.2,6.6,1.2l-0.15,5.46l-2.76,0l-0.75-2.55s-1.35-0.45-2.64-0.45c-2.13,0-3.18,0.93-3.18,2.13c0,3.48,10.11,2.1,10.11,9.15c0,4.5-3.48,6.96-8.1,6.96c-3.39,0-6.69-1.14-6.69-1.14l0-5.76l3.06,0z M226.7177,28.35l0-2.4l6.9-0.15l0,10.35c0,1.65,0.48,2.4,1.83,2.4c1.95,0,3.39-1.62,3.39-1.62l0-7.83l-2.4-0.75l0-2.4l6.9-0.15l0,13.05l2.4,0.6l0,2.34l-6.33,0.21l-0.3-2.1s-2.4,2.4-5.25,2.4c-3,0-4.74-2.01-4.74-5.37l0-7.83z M255.953,38.85l2.7,0.75l0,2.4l-9.63,0l0-2.4l2.4-0.75l0-16.86l-2.4-0.6l0-2.4l6.93-0.24l0,20.1z M272.5883,38.16l1.08,2.28c-1.47,1.08-3.15,1.86-5.1,1.86c-3.45,0-4.44-2.4-4.44-5.85l0-6.9l-2.79,0l0-2.91l2.79-0.39l0-4.14l4.5-0.81l0,4.95l4.2,0l0,3.3l-4.2,0l0,6.6c0,1.92,0.33,2.7,1.59,2.7c0.81,0,1.98-0.48,2.37-0.69z M287.3336,42l-0.54-1.95s-2.31,2.25-4.86,2.25c-2.91,0-4.68-1.71-4.68-4.71c0-3.54,2.67-4.95,7.23-4.95l2.1,0l0-1.65c0-1.53-0.81-2.19-2.31-2.19c-1.53,0-2.64,0.45-2.64,0.45l-0.45,1.89l-2.7,0l-0.21-4.44s3.63-1.2,6.51-1.2c4.56,0,6.3,1.59,6.3,5.94l0,7.41l2.25,0.54l0,2.4z M286.5836,35.19l-1.71,0c-2.34,0-3.27,0.6-3.27,1.95c0,1.14,0.63,1.8,1.77,1.8c1.59,0,3.21-1.74,3.21-1.74l0-2.01z M303.5789,25.8l0.21,2.07s2.85-2.31,5.52-2.31c2.91,0,4.56,2.07,4.56,5.34l0,7.95l2.1,0.75l0,2.4l-8.25,0l0-2.4l1.65-0.75l0-7.14c0-1.38-0.78-2.4-2.04-2.4c-1.86,0-3.21,1.71-3.21,1.71l0,7.83l1.65,0.75l0,2.4l-8.55,0l0-2.4l2.4-0.75l0-9.75l-2.4-0.75l0-2.4z M330.0842,42l-0.54-1.95s-2.31,2.25-4.86,2.25c-2.91,0-4.68-1.71-4.68-4.71c0-3.54,2.67-4.95,7.23-4.95l2.1,0l0-1.65c0-1.53-0.81-2.19-2.31-2.19c-1.53,0-2.64,0.45-2.64,0.45l-0.45,1.89l-2.7,0l-0.21-4.44s3.63-1.2,6.51-1.2c4.56,0,6.3,1.59,6.3,5.94l0,7.41l2.25,0.54l0,2.4z M329.3342,35.19l-1.71,0c-2.34,0-3.27,0.6-3.27,1.95c0,1.14,0.63,1.8,1.77,1.8c1.59,0,3.21-1.74,3.21-1.74l0-2.01z"/><path fill="#" d=""/></svg>
