<svg data-v-423bf9ae="" xmlns="http://www.w3.org/2000/svg" viewBox="0 0 983.6708773599624 193" class="fontAboveSlogan"><!----><!----><!----><g data-v-423bf9ae="" id="21d545a7-c46b-4b1f-ad16-b6a98735d28c" fill="black" transform="matrix(9.13937473252815,0,0,9.13937473252815,-4.8818548676574665,-46.836386945819555)"><path d="M4.40 7.90Q5.45 7.90 6.31 8.32Q7.18 8.75 7.78 9.55L7.78 9.55L6.54 11.05Q6.17 10.01 5.50 9.34Q4.83 8.67 3.91 8.67L3.91 8.67Q3.11 8.67 2.63 9.17Q2.16 9.67 2.16 10.44L2.16 10.44Q2.16 11.12 2.48 11.57Q2.81 12.03 3.30 12.31Q3.78 12.60 4.61 12.98L4.61 12.98Q5.45 13.37 5.95 13.66Q6.45 13.96 6.80 14.45Q7.14 14.94 7.14 15.64L7.14 15.64Q7.14 16.87 6.27 17.56Q5.39 18.24 3.99 18.24L3.99 18.24Q3.02 18.24 2.14 17.84Q1.26 17.44 0.77 16.74L0.77 16.74L1.97 15.36Q2.37 16.37 3.02 16.97Q3.67 17.57 4.42 17.57L4.42 17.57Q5.00 17.57 5.36 17.22Q5.71 16.87 5.71 16.39L5.71 16.39Q5.71 15.93 5.43 15.58Q5.15 15.22 4.72 14.96Q4.28 14.70 3.56 14.35L3.56 14.35Q2.62 13.89 2.03 13.52Q1.44 13.15 1.03 12.54Q0.62 11.94 0.62 11.09L0.62 11.09Q0.62 10.18 1.11 9.45Q1.61 8.72 2.48 8.31Q3.35 7.90 4.40 7.90L4.40 7.90ZM10.54 5.15L10.54 14.62L10.60 14.62Q10.91 13.26 11.61 12.11Q12.31 10.96 13.33 10.96L13.33 10.96Q13.80 10.96 14.04 11.26Q14.27 11.55 14.32 11.95Q14.38 12.35 14.38 12.92L14.38 12.92L14.38 16.80Q14.38 16.97 14.48 17.12Q14.59 17.26 14.78 17.26L14.78 17.26Q15.12 17.26 15.48 16.77L15.48 16.77L15.72 17.04Q15.48 17.51 15.04 17.85Q14.59 18.19 14.06 18.19L14.06 18.19Q12.73 18.19 12.73 16.72L12.73 16.72L12.73 13.05Q12.73 12.87 12.66 12.72Q12.60 12.57 12.45 12.57L12.45 12.57Q11.86 12.57 11.43 13.55Q11.00 14.53 10.77 15.82Q10.54 17.11 10.54 17.91L10.54 17.91L8.86 18.27L8.86 5.74L10.54 5.15ZM20.36 11.09Q21.10 11.09 21.73 11.38Q22.37 11.68 22.68 12.29L22.68 12.29L21.32 12.85Q21.13 12.49 20.78 12.25Q20.43 12.01 20.03 12.01L20.03 12.01Q19.10 12.01 18.55 12.80Q18.00 13.58 18.00 14.76L18.00 14.76Q18.00 15.83 18.33 16.53Q18.65 17.22 19.35 17.22L19.35 17.22Q20.33 17.22 20.69 16.30Q21.06 15.39 21.06 14.31L21.06 14.31L21.06 13.69L22.69 13.10L22.69 16.74Q22.69 16.94 22.79 17.09Q22.88 17.23 23.06 17.23L23.06 17.23Q23.41 17.23 23.77 16.74L23.77 16.74L24.04 17.01Q23.83 17.50 23.37 17.84Q22.92 18.19 22.40 18.19L22.40 18.19Q21.73 18.19 21.42 17.73Q21.11 17.28 21.11 16.56L21.11 16.56L21.06 16.56Q20.72 17.32 20.16 17.79Q19.60 18.26 18.86 18.26L18.86 18.26Q17.74 18.26 17.13 17.44Q16.52 16.62 16.52 15.30L16.52 15.30Q16.52 14.18 17.00 13.22Q17.49 12.25 18.36 11.67Q19.24 11.09 20.36 11.09L20.36 11.09ZM27.89 12.98Q27.30 13.64 26.87 14.62Q26.45 15.61 26.45 16.42L26.45 16.42Q26.45 17.21 26.87 17.72Q27.29 18.23 28.06 18.23L28.06 18.23Q28.67 18.23 29.24 17.92Q29.81 17.61 30.21 17.09L30.21 17.09L30.00 16.84Q29.53 17.15 29.11 17.15L29.11 17.15Q28.48 17.15 28.15 16.72Q27.82 16.28 27.82 15.64L27.82 15.64Q27.82 14.59 28.39 13.55Q28.97 12.52 29.78 11.76L29.78 11.76L29.53 11.49Q28.59 12.11 27.73 12.11L27.73 12.11Q27.19 12.11 26.75 11.68Q26.31 11.26 26.15 10.68L26.15 10.68L24.81 12.19Q24.86 12.39 25.09 12.59Q25.31 12.78 25.35 12.82L25.35 12.82L24.42 14.76L24.99 15.01L25.90 13.06Q26.26 13.20 26.70 13.20L26.70 13.20Q27.37 13.20 27.85 12.92L27.85 12.92L27.89 12.98ZM39.27 10.96Q39.80 10.96 40.05 11.30Q40.29 11.65 40.29 12.32L40.29 12.32L40.29 16.80Q40.29 17.00 40.39 17.13Q40.49 17.26 40.66 17.26L40.66 17.26Q40.81 17.26 41.00 17.14Q41.19 17.01 41.36 16.77L41.36 16.77L41.61 17.04Q41.26 17.75 40.75 17.97Q40.25 18.19 39.97 18.19L39.97 18.19Q38.61 18.19 38.61 16.72L38.61 16.72L38.61 12.94Q38.61 12.80 38.55 12.68Q38.49 12.57 38.39 12.57L38.39 12.57Q38.09 12.57 37.78 13.24Q37.46 13.90 37.25 15.12Q37.03 16.34 37.03 17.91L37.03 17.91L35.34 18.27L35.34 12.94Q35.34 12.80 35.28 12.68Q35.22 12.57 35.13 12.57L35.13 12.57Q34.86 12.57 34.53 13.24Q34.20 13.92 33.97 15.13Q33.74 16.35 33.74 17.91L33.74 17.91L32.12 18.27L32.12 12.39Q32.12 12.17 32.01 12.03Q31.91 11.90 31.74 11.90L31.74 11.90Q31.57 11.90 31.39 12.04Q31.21 12.18 31.05 12.43L31.05 12.43L30.79 12.15Q31.14 11.42 31.65 11.19Q32.17 10.96 32.44 10.96L32.44 10.96Q33.75 10.96 33.75 12.43L33.75 12.43L33.75 14.10L33.81 14.10Q34.16 12.63 34.76 11.80Q35.35 10.96 35.99 10.96L35.99 10.96Q36.55 10.96 36.78 11.30Q37.00 11.63 37.00 12.32L37.00 12.32L37.00 14.10L37.09 14.10Q37.42 12.63 38.02 11.80Q38.61 10.96 39.27 10.96L39.27 10.96ZM44.80 6.31L44.31 9.62L43.43 9.90L42.85 6.97L44.80 6.31ZM44.76 11.09L44.76 16.80Q44.76 17.01 44.86 17.14Q44.95 17.26 45.12 17.26L45.12 17.26Q45.47 17.26 45.84 16.77L45.84 16.77L46.09 17.04Q45.78 17.60 45.30 17.89Q44.81 18.19 44.34 18.19L44.34 18.19Q43.06 18.19 43.06 16.72L43.06 16.72L43.06 11.68L44.76 11.09ZM52.42 10.96Q52.91 10.96 53.13 11.25Q53.35 11.54 53.41 11.92Q53.47 12.31 53.47 12.91L53.47 12.91L53.47 16.80Q53.47 16.97 53.57 17.12Q53.68 17.26 53.83 17.26L53.83 17.26Q54.04 17.26 54.20 17.13Q54.36 17.00 54.54 16.77L54.54 16.77L54.78 17.04Q54.53 17.53 54.09 17.86Q53.65 18.19 53.14 18.19L53.14 18.19Q52.47 18.19 52.14 17.80Q51.80 17.42 51.80 16.72L51.80 16.72L51.80 13.05Q51.80 12.85 51.76 12.71Q51.72 12.57 51.56 12.57L51.56 12.57Q51.09 12.57 50.60 13.59Q50.11 14.60 49.77 15.92Q49.43 17.23 49.43 17.91L49.43 17.91L47.80 18.27L47.80 12.39Q47.80 12.18 47.70 12.04Q47.60 11.90 47.42 11.90L47.42 11.90Q47.22 11.90 47.03 12.06Q46.84 12.22 46.72 12.43L46.72 12.43L46.47 12.15Q46.68 11.66 47.12 11.31Q47.57 10.96 48.09 10.96L48.09 10.96Q48.79 10.96 49.11 11.35Q49.43 11.73 49.43 12.42L49.43 12.42L49.43 15.12L49.49 15.12Q49.87 13.57 50.62 12.26Q51.37 10.96 52.42 10.96L52.42 10.96ZM62.34 7.90Q63.39 7.90 64.26 8.32Q65.13 8.75 65.73 9.55L65.73 9.55L64.48 11.05Q64.12 10.01 63.45 9.34Q62.78 8.67 61.85 8.67L61.85 8.67Q61.05 8.67 60.58 9.17Q60.10 9.67 60.10 10.44L60.10 10.44Q60.10 11.12 60.43 11.57Q60.76 12.03 61.24 12.31Q61.73 12.60 62.55 12.98L62.55 12.98Q63.39 13.37 63.90 13.66Q64.40 13.96 64.74 14.45Q65.09 14.94 65.09 15.64L65.09 15.64Q65.09 16.87 64.21 17.56Q63.34 18.24 61.94 18.24L61.94 18.24Q60.97 18.24 60.09 17.84Q59.21 17.44 58.72 16.74L58.72 16.74L59.92 15.36Q60.31 16.37 60.96 16.97Q61.61 17.57 62.37 17.57L62.37 17.57Q62.94 17.57 63.30 17.22Q63.66 16.87 63.66 16.39L63.66 16.39Q63.66 15.93 63.38 15.58Q63.10 15.22 62.66 14.96Q62.23 14.70 61.50 14.35L61.50 14.35Q60.56 13.89 59.98 13.52Q59.39 13.15 58.98 12.54Q58.56 11.94 58.56 11.09L58.56 11.09Q58.56 10.18 59.06 9.45Q59.56 8.72 60.42 8.31Q61.29 7.90 62.34 7.90L62.34 7.90ZM72.52 10.91L72.52 16.79Q72.52 17.00 72.62 17.13Q72.72 17.26 72.90 17.26L72.90 17.26Q73.18 17.26 73.58 16.79L73.58 16.79L73.82 17.04Q73.47 17.75 72.95 17.97Q72.44 18.19 72.17 18.19L72.17 18.19Q71.65 18.19 71.38 17.95Q71.11 17.71 70.99 17.16Q70.87 16.60 70.87 15.60L70.87 15.60L70.87 15.18L70.81 14.21L70.76 14.21Q70.42 15.71 69.75 16.98Q69.09 18.26 68.01 18.26L68.01 18.26Q67.54 18.26 67.30 18.03Q67.07 17.79 67.01 17.40Q66.95 17.01 66.95 16.32L66.95 16.32L66.95 12.43Q66.95 12.19 66.85 12.06Q66.75 11.93 66.58 11.93L66.58 11.93Q66.25 11.93 65.87 12.43L65.87 12.43L65.63 12.17Q65.87 11.65 66.23 11.38Q66.60 11.12 66.87 11.05Q67.14 10.98 67.23 10.98L67.23 10.98Q67.98 10.98 68.31 11.39Q68.63 11.80 68.63 12.43L68.63 12.43L68.63 16.17Q68.63 16.42 68.69 16.56Q68.75 16.70 68.85 16.70L68.85 16.70Q69.36 16.70 69.79 15.69Q70.22 14.67 70.49 13.38Q70.76 12.08 70.76 11.49L70.76 11.49L72.52 10.91ZM76.85 5.14L76.85 16.80Q76.85 16.98 76.94 17.12Q77.03 17.26 77.22 17.26L77.22 17.26Q77.42 17.26 77.62 17.11Q77.83 16.95 77.95 16.77L77.95 16.77L78.20 17.04Q77.97 17.51 77.51 17.85Q77.06 18.19 76.54 18.19L76.54 18.19Q75.18 18.19 75.18 16.72L75.18 16.72L75.18 5.74L76.85 5.14ZM82.74 12.01L81.33 12.01L81.33 16.80Q81.33 17.00 81.44 17.13Q81.55 17.26 81.73 17.26L81.73 17.26Q82.07 17.26 82.49 16.77L82.49 16.77L82.74 17.04Q82.49 17.54 82.11 17.79Q81.73 18.05 81.38 18.13Q81.03 18.21 81.03 18.19L81.03 18.19Q79.63 18.19 79.63 16.72L79.63 16.72L79.63 12.01L78.64 12.01L79.07 11.09L79.63 11.09L79.63 7.91L81.33 7.34L81.33 11.09L83.16 11.09L82.74 12.01ZM81.03 18.19L81.03 18.19ZM87.68 11.09Q88.42 11.09 89.06 11.38Q89.70 11.68 90.01 12.29L90.01 12.29L88.65 12.85Q88.45 12.49 88.10 12.25Q87.75 12.01 87.36 12.01L87.36 12.01Q86.42 12.01 85.88 12.80Q85.33 13.58 85.33 14.76L85.33 14.76Q85.33 15.83 85.65 16.53Q85.97 17.22 86.67 17.22L86.67 17.22Q87.65 17.22 88.02 16.30Q88.38 15.39 88.38 14.31L88.38 14.31L88.38 13.69L90.02 13.10L90.02 16.74Q90.02 16.94 90.11 17.09Q90.20 17.23 90.38 17.23L90.38 17.23Q90.73 17.23 91.10 16.74L91.10 16.74L91.36 17.01Q91.15 17.50 90.70 17.84Q90.24 18.19 89.73 18.19L89.73 18.19Q89.05 18.19 88.75 17.73Q88.44 17.28 88.44 16.56L88.44 16.56L88.38 16.56Q88.05 17.32 87.49 17.79Q86.93 18.26 86.18 18.26L86.18 18.26Q85.06 18.26 84.45 17.44Q83.85 16.62 83.85 15.30L83.85 15.30Q83.85 14.18 84.33 13.22Q84.81 12.25 85.69 11.67Q86.56 11.09 87.68 11.09L87.68 11.09ZM97.58 10.96Q98.07 10.96 98.29 11.25Q98.52 11.54 98.57 11.92Q98.63 12.31 98.63 12.91L98.63 12.91L98.63 16.80Q98.63 16.97 98.73 17.12Q98.84 17.26 98.99 17.26L98.99 17.26Q99.20 17.26 99.36 17.13Q99.53 17.00 99.71 16.77L99.71 16.77L99.95 17.04Q99.69 17.53 99.25 17.86Q98.81 18.19 98.31 18.19L98.31 18.19Q97.64 18.19 97.30 17.80Q96.96 17.42 96.96 16.72L96.96 16.72L96.96 13.05Q96.96 12.85 96.92 12.71Q96.88 12.57 96.73 12.57L96.73 12.57Q96.25 12.57 95.76 13.59Q95.27 14.60 94.93 15.92Q94.60 17.23 94.60 17.91L94.60 17.91L92.96 18.27L92.96 12.39Q92.96 12.18 92.86 12.04Q92.76 11.90 92.58 11.90L92.58 11.90Q92.39 11.90 92.20 12.06Q92.01 12.22 91.88 12.43L91.88 12.43L91.63 12.15Q91.84 11.66 92.29 11.31Q92.74 10.96 93.25 10.96L93.25 10.96Q93.95 10.96 94.28 11.35Q94.60 11.73 94.60 12.42L94.60 12.42L94.60 15.12L94.65 15.12Q95.03 13.57 95.78 12.26Q96.53 10.96 97.58 10.96L97.58 10.96ZM104.57 11.09Q105.31 11.09 105.94 11.38Q106.58 11.68 106.89 12.29L106.89 12.29L105.53 12.85Q105.34 12.49 104.99 12.25Q104.64 12.01 104.24 12.01L104.24 12.01Q103.31 12.01 102.76 12.80Q102.21 13.58 102.21 14.76L102.21 14.76Q102.21 15.83 102.54 16.53Q102.86 17.22 103.56 17.22L103.56 17.22Q104.54 17.22 104.90 16.30Q105.27 15.39 105.27 14.31L105.27 14.31L105.27 13.69L106.90 13.10L106.90 16.74Q106.90 16.94 106.99 17.09Q107.09 17.23 107.27 17.23L107.27 17.23Q107.62 17.23 107.98 16.74L107.98 16.74L108.25 17.01Q108.04 17.50 107.58 17.84Q107.13 18.19 106.61 18.19L106.61 18.19Q105.94 18.19 105.63 17.73Q105.32 17.28 105.32 16.56L105.32 16.56L105.27 16.56Q104.93 17.32 104.37 17.79Q103.81 18.26 103.07 18.26L103.07 18.26Q101.95 18.26 101.34 17.44Q100.73 16.62 100.73 15.30L100.73 15.30Q100.73 14.18 101.21 13.22Q101.70 12.25 102.57 11.67Q103.45 11.09 104.57 11.09L104.57 11.09Z"></path></g><!----><!----><g data-v-423bf9ae="" id="cdf127ce-f901-4e2b-8e0f-20925e038e14" fill="black" transform="matrix(3.5735558990070766,0,0,3.5735558990070766,201.6626948217097,120.45681954382098)"><path d="M1.48 14.60L1.48 14.60Q1.48 14.32 1.55 13.82Q1.61 13.31 1.72 12.73Q1.82 12.14 1.95 11.52Q2.09 10.91 2.23 10.42L2.23 10.42Q2.41 9.76 2.79 9.40Q3.18 9.04 3.75 9.04L3.75 9.04Q4.06 9.04 4.36 9.14Q4.66 9.24 4.72 9.39L4.72 9.39Q4.31 9.73 4.07 10.23Q3.82 10.72 3.68 11.29Q3.53 11.86 3.45 12.45Q3.37 13.05 3.29 13.57L3.29 13.57Q3.75 12.95 4.17 12.45Q4.58 11.96 4.90 11.66L4.90 11.66Q5.33 11.26 5.49 10.98Q5.64 10.71 5.75 10.39L5.75 10.39Q5.84 10.14 5.96 9.80Q6.08 9.46 6.36 9.18L6.36 9.18Q6.41 9.17 6.59 9.17L6.59 9.17Q6.73 9.17 6.90 9.18Q7.06 9.20 7.20 9.24Q7.34 9.28 7.43 9.34Q7.53 9.39 7.55 9.48L7.55 9.48Q7.32 9.77 7.13 10.39Q6.93 11.02 6.78 11.76Q6.62 12.50 6.50 13.24Q6.37 13.97 6.27 14.48L6.27 14.48Q6.33 14.45 6.52 14.25Q6.72 14.06 6.96 13.76Q7.21 13.47 7.48 13.12Q7.76 12.77 7.97 12.43L7.97 12.43Q8.23 12.03 8.41 11.67Q8.58 11.31 8.71 10.91Q8.85 10.50 8.96 10.00Q9.07 9.51 9.20 8.82L9.20 8.82Q9.28 8.71 9.57 8.63Q9.86 8.55 10.09 8.55L10.09 8.55Q10.30 8.55 10.40 8.62L10.40 8.62Q10.33 9.41 10.14 10.02Q9.95 10.64 9.63 11.22Q9.31 11.80 8.83 12.38Q8.36 12.96 7.71 13.65L7.71 13.65Q7.45 13.93 7.13 14.27Q6.82 14.60 6.52 14.89Q6.22 15.18 5.96 15.37Q5.70 15.57 5.56 15.57L5.56 15.57Q5.24 15.57 5.03 15.32Q4.82 15.06 4.82 14.67L4.82 14.67Q4.82 14.27 4.85 13.96Q4.89 13.66 4.97 13.33L4.97 13.33Q5.05 13.02 5.10 12.81Q5.15 12.60 5.19 12.45Q5.22 12.29 5.24 12.18Q5.25 12.07 5.26 11.96L5.26 11.96Q5.15 12.01 4.97 12.19Q4.79 12.36 4.59 12.59Q4.40 12.82 4.20 13.06Q4.00 13.30 3.88 13.47L3.88 13.47Q3.61 13.83 3.42 14.11Q3.22 14.39 3.04 14.64Q2.87 14.90 2.70 15.15Q2.53 15.41 2.31 15.71L2.31 15.71Q1.86 15.57 1.67 15.29Q1.48 15.01 1.48 14.60ZM22.26 9.38L22.26 9.38Q22.20 10.25 21.95 10.87Q21.70 11.49 21.23 11.96Q20.76 12.43 20.09 12.81Q19.42 13.19 18.52 13.54L18.52 13.54Q18.52 13.62 18.52 13.71Q18.51 13.80 18.51 13.90L18.51 13.90Q18.51 14.08 18.54 14.28Q18.56 14.48 18.63 14.64Q18.70 14.81 18.83 14.92Q18.96 15.02 19.15 15.02L19.15 15.02Q19.53 15.02 19.89 14.85Q20.26 14.69 20.59 14.44Q20.92 14.20 21.20 13.91Q21.49 13.62 21.71 13.38L21.71 13.38Q21.85 13.51 21.95 13.62L21.95 13.62Q21.32 14.46 20.57 15.02Q19.82 15.57 19.15 15.72L19.15 15.72Q18.19 15.61 17.65 15.02Q17.11 14.42 17.11 13.58L17.11 13.58Q17.11 13.01 17.27 12.41Q17.43 11.82 17.72 11.26Q18.00 10.71 18.39 10.22Q18.77 9.73 19.21 9.37Q19.66 9.00 20.13 8.79Q20.59 8.58 21.06 8.58L21.06 8.58Q21.70 8.67 22.26 9.38ZM21.29 9.84L21.29 9.84Q20.92 9.90 20.51 10.15Q20.10 10.40 19.75 10.82Q19.39 11.24 19.10 11.80Q18.80 12.36 18.63 13.01L18.63 13.01Q19.75 12.45 20.50 11.63Q21.24 10.81 21.29 9.84ZM31.19 15.27L31.19 15.27Q31.84 14.84 32.45 14.16Q33.07 13.48 33.57 12.69Q34.08 11.90 34.43 11.05Q34.78 10.19 34.90 9.41L34.90 9.41Q34.90 9.24 34.72 9.18L34.72 9.18Q34.52 9.18 34.18 9.53Q33.84 9.87 33.42 10.40Q33.01 10.93 32.59 11.59Q32.16 12.25 31.81 12.90Q31.46 13.55 31.21 14.12Q30.97 14.69 30.94 15.04L30.94 15.04Q30.80 15.04 30.70 14.76L30.70 14.76Q30.67 14.69 30.60 14.61Q30.53 14.53 30.38 14.42L30.38 14.42Q30.31 14.36 30.24 14.29Q30.17 14.21 30.14 14.15L30.14 14.15Q30.09 14.04 30.09 13.79L30.09 13.79Q30.09 12.96 30.30 11.93Q30.51 10.89 30.85 9.81Q31.19 8.74 31.65 7.69Q32.12 6.65 32.61 5.78Q33.11 4.91 33.61 4.31Q34.12 3.71 34.57 3.51L34.57 3.51Q34.71 3.56 34.90 3.65Q35.10 3.75 35.29 3.88Q35.49 4.00 35.66 4.13Q35.84 4.26 35.92 4.35L35.92 4.35Q34.38 5.60 33.26 7.55Q32.13 9.51 31.42 12.17L31.42 12.17Q31.81 11.44 32.30 10.76Q32.79 10.08 33.27 9.56Q33.75 9.04 34.20 8.74Q34.64 8.43 34.93 8.43L34.93 8.43Q35.15 8.48 35.36 8.62Q35.57 8.76 35.74 8.97Q35.91 9.17 36.02 9.40Q36.13 9.63 36.16 9.88L36.16 9.88Q36.15 10.47 35.96 11.14Q35.77 11.80 35.45 12.45Q35.14 13.09 34.74 13.68Q34.34 14.27 33.90 14.71Q33.46 15.15 33.02 15.41Q32.58 15.68 32.19 15.68L32.19 15.68Q32.02 15.68 31.84 15.64Q31.67 15.61 31.52 15.55Q31.37 15.48 31.28 15.41Q31.19 15.34 31.19 15.27ZM56.90 8.64L56.90 8.64Q57.18 8.64 57.54 8.81Q57.90 8.97 58.18 9.24L58.18 9.24Q58.11 8.68 58.01 8.18Q57.90 7.69 57.70 7.15Q57.50 6.62 57.16 5.99Q56.83 5.36 56.32 4.55L56.32 4.55Q56.36 4.42 56.51 4.26Q56.66 4.09 56.85 3.94Q57.04 3.79 57.24 3.68Q57.44 3.57 57.62 3.54L57.62 3.54Q58.02 3.98 58.37 4.63Q58.72 5.28 58.98 6.03Q59.25 6.78 59.39 7.57Q59.54 8.37 59.54 9.10L59.54 9.10Q59.54 9.83 59.38 10.60Q59.22 11.37 58.93 12.10Q58.65 12.84 58.27 13.50Q57.89 14.15 57.45 14.67Q57.01 15.19 56.53 15.52Q56.06 15.85 55.58 15.93L55.58 15.93Q54.61 15.82 54.10 15.31Q53.59 14.80 53.59 13.90L53.59 13.90Q53.59 13.43 53.74 12.87Q53.89 12.31 54.13 11.75Q54.38 11.20 54.70 10.68Q55.03 10.15 55.40 9.73Q55.78 9.31 56.15 9.02Q56.53 8.72 56.90 8.64ZM55.47 15.37L55.47 15.37Q55.96 15.20 56.45 14.63Q56.94 14.06 57.33 13.28Q57.72 12.50 57.97 11.61Q58.21 10.72 58.21 9.90L58.21 9.90Q58.21 9.66 58.21 9.60Q58.21 9.55 58.20 9.49L58.20 9.49Q57.86 9.63 57.48 9.97Q57.11 10.30 56.73 10.75Q56.35 11.19 56.01 11.70Q55.68 12.22 55.41 12.74Q55.15 13.26 54.99 13.73Q54.84 14.21 54.84 14.57L54.84 14.57Q54.84 15.27 55.47 15.37ZM71.92 9.38L71.92 9.38Q71.86 10.25 71.61 10.87Q71.36 11.49 70.89 11.96Q70.42 12.43 69.75 12.81Q69.08 13.19 68.18 13.54L68.18 13.54Q68.18 13.62 68.17 13.71Q68.17 13.80 68.17 13.90L68.17 13.90Q68.17 14.08 68.19 14.28Q68.22 14.48 68.29 14.64Q68.36 14.81 68.49 14.92Q68.61 15.02 68.81 15.02L68.81 15.02Q69.19 15.02 69.55 14.85Q69.92 14.69 70.25 14.44Q70.57 14.20 70.86 13.91Q71.15 13.62 71.37 13.38L71.37 13.38Q71.51 13.51 71.61 13.62L71.61 13.62Q70.98 14.46 70.23 15.02Q69.48 15.57 68.81 15.72L68.81 15.72Q67.84 15.61 67.31 15.02Q66.77 14.42 66.77 13.58L66.77 13.58Q66.77 13.01 66.93 12.41Q67.09 11.82 67.38 11.26Q67.66 10.71 68.05 10.22Q68.43 9.73 68.87 9.37Q69.31 9.00 69.78 8.79Q70.25 8.58 70.71 8.58L70.71 8.58Q71.36 8.67 71.92 9.38ZM70.95 9.84L70.95 9.84Q70.57 9.90 70.17 10.15Q69.76 10.40 69.41 10.82Q69.05 11.24 68.75 11.80Q68.46 12.36 68.29 13.01L68.29 13.01Q69.41 12.45 70.15 11.63Q70.90 10.81 70.95 9.84ZM80.23 10.22L80.23 10.22Q80.23 9.97 80.27 9.74Q80.30 9.52 80.42 9.36Q80.53 9.20 80.72 9.11Q80.92 9.02 81.24 9.02L81.24 9.02Q81.44 9.02 81.68 9.06Q81.93 9.10 82.04 9.21L82.04 9.21Q81.98 9.45 81.95 9.63Q81.91 9.81 81.89 10.03Q81.87 10.25 81.86 10.55Q81.84 10.85 81.83 11.33L81.83 11.33Q81.80 12.28 81.74 13.03Q81.68 13.78 81.45 14.52L81.45 14.52Q81.45 14.57 81.49 14.57L81.49 14.57Q81.70 14.42 81.97 14.13Q82.24 13.83 82.53 13.46Q82.82 13.09 83.12 12.67Q83.41 12.25 83.66 11.84L83.66 11.84Q84.00 11.26 84.41 10.37Q84.81 9.49 85.08 8.48L85.08 8.48Q85.16 8.48 85.30 8.52Q85.43 8.55 85.56 8.60Q85.69 8.65 85.80 8.71Q85.90 8.76 85.95 8.81L85.95 8.81Q85.92 9.41 85.66 10.04Q85.40 10.67 85.04 11.26Q84.67 11.84 84.27 12.36Q83.86 12.88 83.52 13.26L83.52 13.26Q82.85 14.04 82.17 14.66Q81.49 15.27 80.56 15.85L80.56 15.85Q80.19 15.71 79.98 15.48Q79.77 15.25 79.77 14.99L79.77 14.99Q79.77 14.83 79.85 14.61Q79.93 14.39 80.02 14.05Q80.12 13.71 80.20 13.19Q80.28 12.67 80.28 11.87L80.28 11.87Q80.28 11.41 80.26 10.94Q80.23 10.47 80.23 10.22ZM97.75 9.38L97.75 9.38Q97.69 10.25 97.44 10.87Q97.19 11.49 96.72 11.96Q96.25 12.43 95.58 12.81Q94.91 13.19 94.01 13.54L94.01 13.54Q94.01 13.62 94.00 13.71Q94.00 13.80 94.00 13.90L94.00 13.90Q94.00 14.08 94.02 14.28Q94.05 14.48 94.12 14.64Q94.19 14.81 94.32 14.92Q94.44 15.02 94.64 15.02L94.64 15.02Q95.02 15.02 95.38 14.85Q95.75 14.69 96.08 14.44Q96.40 14.20 96.69 13.91Q96.98 13.62 97.20 13.38L97.20 13.38Q97.34 13.51 97.44 13.62L97.44 13.62Q96.81 14.46 96.06 15.02Q95.31 15.57 94.64 15.72L94.64 15.72Q93.67 15.61 93.14 15.02Q92.60 14.42 92.60 13.58L92.60 13.58Q92.60 13.01 92.76 12.41Q92.92 11.82 93.21 11.26Q93.49 10.71 93.88 10.22Q94.26 9.73 94.70 9.37Q95.14 9.00 95.61 8.79Q96.08 8.58 96.54 8.58L96.54 8.58Q97.19 8.67 97.75 9.38ZM96.78 9.84L96.78 9.84Q96.40 9.90 96.00 10.15Q95.59 10.40 95.24 10.82Q94.88 11.24 94.58 11.80Q94.29 12.36 94.12 13.01L94.12 13.01Q95.24 12.45 95.98 11.63Q96.73 10.81 96.78 9.84ZM105.38 14.28L105.38 14.28Q105.38 13.66 105.67 12.55Q105.97 11.44 106.50 9.95L106.50 9.95Q107.37 7.59 108.13 6.01Q108.89 4.44 109.62 3.56L109.62 3.56Q109.79 3.58 110.03 3.70Q110.28 3.81 110.52 3.94Q110.75 4.07 110.94 4.21Q111.13 4.35 111.19 4.44L111.19 4.44Q110.10 5.73 109.27 7.21Q108.44 8.69 107.76 10.61L107.76 10.61Q107.17 12.26 106.86 13.59Q106.55 14.91 106.55 15.79L106.55 15.79Q106.55 16.03 106.55 16.09Q106.55 16.14 106.57 16.20L106.57 16.20Q106.37 16.17 106.23 16.10Q106.09 16.03 106.05 15.93L106.05 15.93Q106.02 15.86 105.90 15.73Q105.77 15.60 105.67 15.53L105.67 15.53Q105.55 15.44 105.46 15.09Q105.38 14.73 105.38 14.28ZM117.29 15.67L117.29 15.67Q116.49 15.58 116.02 14.97Q115.54 14.35 115.54 13.40L115.54 13.40Q115.54 12.84 115.71 12.24Q115.88 11.63 116.19 11.07Q116.49 10.50 116.91 10.00Q117.33 9.49 117.82 9.13L117.82 9.13Q118.59 8.55 119.27 8.55L119.27 8.55Q119.71 8.79 120.15 9.55L120.15 9.55Q120.22 9.55 120.27 9.54Q120.33 9.53 120.40 9.53L120.40 9.53Q121.14 9.53 121.14 10.85L121.14 10.85Q121.14 11.73 120.86 12.52Q120.57 13.31 120.06 13.96Q119.55 14.60 118.84 15.04Q118.13 15.48 117.29 15.67ZM118.01 11.26L118.01 11.26Q117.77 11.58 117.56 11.96Q117.35 12.33 117.19 12.72Q117.04 13.10 116.96 13.46Q116.87 13.82 116.87 14.10L116.87 14.10Q116.87 14.43 116.98 14.74Q117.10 15.05 117.24 15.09L117.24 15.09Q117.87 14.95 118.39 14.57Q118.92 14.18 119.30 13.61Q119.69 13.03 119.90 12.31Q120.12 11.58 120.12 10.75L120.12 10.75Q120.12 10.39 120.08 10.18Q120.04 9.97 119.94 9.81L119.94 9.81Q119.32 10.00 118.84 10.40Q118.36 10.81 118.01 11.26ZM127.79 19.81L127.79 19.81Q127.60 19.75 127.57 19.39L127.57 19.39Q127.51 19.21 127.49 18.96Q127.47 18.70 127.47 18.38L127.47 18.38Q127.47 18.09 127.57 17.58Q127.67 17.07 127.84 16.42Q128.02 15.78 128.27 15.03Q128.52 14.28 128.83 13.51L128.83 13.51Q129.21 12.54 129.49 11.84Q129.77 11.13 129.96 10.61Q130.14 10.09 130.26 9.76Q130.38 9.42 130.45 9.18L130.45 9.18Q130.51 9.02 130.62 8.78Q130.73 8.54 130.88 8.29Q131.03 8.05 131.18 7.83Q131.33 7.62 131.46 7.50L131.46 7.50Q131.95 7.57 132.38 7.76Q132.82 7.94 132.92 8.11L132.92 8.11Q132.72 8.29 132.47 8.67Q132.22 9.06 131.98 9.51Q131.74 9.97 131.54 10.44Q131.35 10.92 131.25 11.28L131.25 11.28Q131.39 11.05 131.61 10.77Q131.84 10.49 132.30 10.00L132.30 10.00Q132.82 9.46 133.27 9.18Q133.73 8.89 134.06 8.89L134.06 8.89Q134.60 8.89 134.94 9.18Q135.28 9.48 135.28 9.94L135.28 9.94Q135.28 10.95 134.95 11.94Q134.61 12.92 133.98 13.72L133.98 13.72Q133.74 14.03 133.42 14.31Q133.10 14.59 132.75 14.80Q132.40 15.02 132.06 15.15Q131.73 15.27 131.46 15.27L131.46 15.27Q131.21 15.27 131.02 15.17Q130.83 15.06 130.76 14.91L130.76 14.91Q131.31 14.59 131.82 14.01Q132.34 13.44 132.78 12.69Q133.22 11.94 133.55 11.07Q133.88 10.21 134.05 9.31L134.05 9.31Q133.52 9.59 133.09 9.92Q132.66 10.25 132.24 10.78L132.24 10.78Q131.74 11.40 131.45 11.77Q131.15 12.15 130.96 12.42Q130.77 12.68 130.66 12.91Q130.54 13.15 130.40 13.48L130.40 13.48Q130.20 13.93 129.94 14.67Q129.68 15.40 129.41 16.31Q129.14 17.22 128.86 18.25Q128.59 19.28 128.34 20.30L128.34 20.30Q128.18 20.27 128.07 20.08L128.07 20.08Q127.96 19.95 127.91 19.89Q127.86 19.84 127.79 19.81ZM147.80 9.38L147.80 9.38Q147.74 10.25 147.49 10.87Q147.24 11.49 146.77 11.96Q146.30 12.43 145.63 12.81Q144.96 13.19 144.06 13.54L144.06 13.54Q144.06 13.62 144.05 13.71Q144.05 13.80 144.05 13.90L144.05 13.90Q144.05 14.08 144.07 14.28Q144.10 14.48 144.17 14.64Q144.24 14.81 144.37 14.92Q144.49 15.02 144.69 15.02L144.69 15.02Q145.07 15.02 145.43 14.85Q145.80 14.69 146.13 14.44Q146.45 14.20 146.74 13.91Q147.03 13.62 147.25 13.38L147.25 13.38Q147.39 13.51 147.49 13.62L147.49 13.62Q146.86 14.46 146.11 15.02Q145.36 15.57 144.69 15.72L144.69 15.72Q143.72 15.61 143.19 15.02Q142.65 14.42 142.65 13.58L142.65 13.58Q142.65 13.01 142.81 12.41Q142.97 11.82 143.26 11.26Q143.54 10.71 143.93 10.22Q144.31 9.73 144.75 9.37Q145.19 9.00 145.66 8.79Q146.13 8.58 146.59 8.58L146.59 8.58Q147.24 8.67 147.80 9.38ZM146.83 9.84L146.83 9.84Q146.45 9.90 146.05 10.15Q145.64 10.40 145.29 10.82Q144.93 11.24 144.63 11.80Q144.34 12.36 144.17 13.01L144.17 13.01Q145.29 12.45 146.03 11.63Q146.78 10.81 146.83 9.84ZM155.11 14.90L155.11 14.90Q155.18 14.49 155.35 13.82Q155.53 13.16 155.76 12.41Q156.00 11.66 156.27 10.91Q156.53 10.15 156.79 9.55L156.79 9.55Q156.97 9.11 157.11 8.87Q157.25 8.62 157.42 8.46L157.42 8.46Q157.61 8.48 157.82 8.55Q158.03 8.62 158.23 8.72Q158.42 8.82 158.58 8.93Q158.73 9.03 158.82 9.13L158.82 9.13Q158.44 9.58 158.15 10.15Q157.86 10.72 157.57 11.62L157.57 11.62Q158.33 10.95 158.91 10.33Q159.49 9.72 159.99 8.96L159.99 8.96Q160.08 8.89 160.29 8.89L160.29 8.89Q160.48 8.89 160.66 8.95Q160.85 9.02 160.92 9.13L160.92 9.13Q160.66 9.80 160.66 10.46L160.66 10.46Q160.66 11.07 160.85 11.38L160.85 11.38Q160.83 11.47 160.66 11.70Q160.48 11.94 160.27 12.15L160.27 12.15Q159.89 11.96 159.60 11.61Q159.31 11.27 159.17 10.86L159.17 10.86Q158.51 11.33 158.05 11.77Q157.58 12.21 157.26 12.75Q156.93 13.29 156.70 13.99Q156.46 14.69 156.25 15.65L156.25 15.65Q156.13 15.64 155.95 15.56Q155.78 15.48 155.60 15.37Q155.43 15.26 155.29 15.13Q155.15 15.01 155.11 14.90Z"></path></g></svg>